<?xml version="1.0" standalone="no"?>
<!DOCTYPE svg PUBLIC "-//W3C//DTD SVG 20010904//EN"
 "http://www.w3.org/TR/2001/REC-SVG-20010904/DTD/svg10.dtd">
<svg version="1.0" xmlns="http://www.w3.org/2000/svg"
 width="260.000000pt" height="260.000000pt" viewBox="0 0 260.000000 260.000000"
 preserveAspectRatio="xMidYMid meet">
<metadata>
Created by potrace 1.11, written by Peter Selinger 2001-2013
</metadata>
<g transform="translate(0.000000,260.000000) scale(0.100000,-0.100000)"
fill="#000000" stroke="none">
<path d="M1570 2139 c-91 -15 -179 -31 -195 -34 -24 -4 -31 -11 -33 -30 -1
-21 2 -25 28 -25 67 0 103 -39 93 -101 -6 -40 -95 -348 -248 -864 -32 -104
-67 -226 -80 -270 -54 -188 -97 -330 -101 -337 -3 -5 66 -8 154 -8 l159 0 57
202 57 203 67 62 c43 39 69 57 73 50 4 -7 21 -79 39 -162 41 -195 57 -250 87
-307 85 -158 282 -64 437 210 l34 61 -23 15 c-24 16 -25 15 -57 -40 -18 -32
-46 -66 -61 -78 -56 -42 -71 -9 -148 321 -27 117 -49 218 -49 226 0 16 36 50
150 142 85 69 166 114 240 134 37 10 46 17 48 37 l2 24 -249 0 -249 0 -4 -25
c-4 -16 -1 -25 8 -26 8 -1 19 -3 24 -4 6 -1 21 -3 35 -4 14 0 37 -12 50 -25
47 -47 39 -57 -305 -376 -15 -14 -47 -43 -70 -65 -31 -29 -41 -35 -37 -20 3
11 43 151 90 310 111 377 171 584 212 723 l32 112 -51 -1 c-28 -1 -125 -14
-216 -30z"/>
<path d="M627 1580 c-72 -35 -105 -84 -112 -166 -5 -49 -2 -66 18 -104 70
-133 246 -147 341 -27 29 36 31 45 31 117 0 72 -2 81 -31 117 -61 77 -164 103
-247 63z"/>
<path d="M401 817 c-24 -12 -57 -42 -74 -65 -28 -39 -32 -51 -32 -112 0 -60 4
-74 30 -111 44 -63 86 -84 167 -84 57 0 72 4 110 30 54 38 91 108 90 170 -3
146 -163 240 -291 172z"/>
</g>
</svg>
